<svg id="visual" viewBox="0 0 900 600" width="900" height="600" xmlns="http://www.w3.org/2000/svg" xmlns:xlink="http://www.w3.org/1999/xlink" version="1.1"><rect width="900" height="600" fill="#931F1F"></rect><g><g transform="translate(588 552)"><path d="M50.7 -15.7C57.3 4.1 48.7 29.6 31.5 41.7C14.3 53.8 -11.5 52.5 -26.9 40.4C-42.4 28.4 -47.6 5.6 -41.4 -13.5C-35.2 -32.7 -17.6 -48.2 2.2 -48.9C22 -49.6 44 -35.5 50.7 -15.7Z" stroke="#F7760E" fill="none" stroke-width="20"></path></g><g transform="translate(770 310)"><path d="M29.3 -9.2C33.7 4 30 20.1 19.6 27.9C9.2 35.7 -8 35.2 -18.8 27.1C-29.7 18.9 -34.1 3.2 -30 -9.7C-25.8 -22.6 -12.9 -32.6 -0.2 -32.5C12.5 -32.5 24.9 -22.3 29.3 -9.2Z" stroke="#F7760E" fill="none" stroke-width="20"></path></g><g transform="translate(53 188)"><path d="M26.9 -7.5C30.8 3.3 27.1 17.7 17.3 25.1C7.6 32.5 -8.3 32.8 -17.4 25.8C-26.5 18.7 -29 4.2 -25 -6.7C-20.9 -17.6 -10.5 -25 0.5 -25.2C11.5 -25.4 23 -18.3 26.9 -7.5Z" stroke="#F7760E" fill="none" stroke-width="20"></path></g><g transform="translate(855 66)"><path d="M29.9 -9.6C34.7 4.8 31.5 21.9 21.3 29.4C11.1 36.8 -6.1 34.5 -18 25.6C-30 16.8 -36.6 1.4 -32.7 -11.9C-28.8 -25.2 -14.4 -36.4 -0.9 -36.1C12.6 -35.8 25.2 -24.1 29.9 -9.6Z" stroke="#F7760E" fill="none" stroke-width="20"></path></g><g transform="translate(869 576)"><path d="M43.5 -14.3C49.6 4.7 43.2 27.6 28.7 37.7C14.3 47.8 -8.2 44.9 -23 33.7C-37.8 22.4 -45.1 2.7 -40 -14.9C-34.9 -32.4 -17.4 -47.8 0.6 -48C18.7 -48.2 37.4 -33.2 43.5 -14.3Z" stroke="#F7760E" fill="none" stroke-width="20"></path></g><g transform="translate(603 124)"><path d="M39.5 -13.4C44.6 2.7 37.5 22.3 23.1 33C8.8 43.7 -12.9 45.6 -26.2 35.9C-39.6 26.3 -44.7 5 -39 -12.1C-33.2 -29.1 -16.6 -42.1 0.3 -42.2C17.2 -42.3 34.5 -29.6 39.5 -13.4Z" stroke="#F7760E" fill="none" stroke-width="20"></path></g><g transform="translate(141 417)"><path d="M38.9 -13.9C43.4 1.2 35.2 19.1 21.6 28.8C8 38.5 -11 39.8 -24.4 30.8C-37.8 21.7 -45.6 2.2 -40.6 -13.6C-35.6 -29.3 -17.8 -41.3 -0.3 -41.2C17.2 -41.1 34.4 -28.9 38.9 -13.9Z" stroke="#F7760E" fill="none" stroke-width="20"></path></g><g transform="translate(387 3)"><path d="M39.3 -11.7C45.6 6.8 41.8 29.6 27.7 40.3C13.6 51.1 -10.8 49.8 -26 38.2C-41.2 26.6 -47.1 4.7 -41.3 -13.1C-35.4 -31 -17.7 -44.7 -0.6 -44.5C16.5 -44.3 32.9 -30.2 39.3 -11.7Z" stroke="#F7760E" fill="none" stroke-width="20"></path></g><g transform="translate(6 323)"><path d="M40.7 -13.4C46.3 4.1 40 25.2 25.7 35.7C11.4 46.1 -10.9 45.9 -25 35.4C-39.1 24.9 -45 4.2 -39.5 -13.2C-34 -30.6 -17 -44.6 0.3 -44.7C17.6 -44.8 35.1 -30.9 40.7 -13.4Z" stroke="#F7760E" fill="none" stroke-width="20"></path></g><g transform="translate(413 599)"><path d="M22.4 -6.8C25.9 3.3 23.2 15.8 15.1 21.9C7 28.1 -6.5 27.9 -15.4 21.4C-24.3 14.9 -28.4 2.2 -25.1 -7.7C-21.7 -17.6 -10.9 -24.7 -0.7 -24.5C9.5 -24.3 19 -16.8 22.4 -6.8Z" stroke="#F7760E" fill="none" stroke-width="20"></path></g><g transform="translate(194 51)"><path d="M35.1 -11.4C40.2 4.4 35.5 23.4 23.7 31.8C11.8 40.2 -7.2 38.1 -20 28.5C-32.9 19 -39.6 2 -35.2 -12.7C-30.9 -27.4 -15.4 -39.8 -0.2 -39.7C15 -39.6 30 -27.1 35.1 -11.4Z" stroke="#F7760E" fill="none" stroke-width="20"></path></g><g transform="translate(299 227)"><path d="M23.5 -8.6C26.7 2.1 22.9 14.1 14.9 19.8C6.9 25.4 -5.2 24.6 -13.9 18.5C-22.5 12.4 -27.7 0.8 -24.8 -9.5C-21.9 -19.8 -11 -28.9 -0.4 -28.8C10.2 -28.7 20.4 -19.3 23.5 -8.6Z" stroke="#F7760E" fill="none" stroke-width="20"></path></g><g transform="translate(458 387)"><path d="M31.3 -10.3C36 4 31.9 21.1 20.9 29.2C9.9 37.3 -7.9 36.4 -19.8 27.6C-31.8 18.9 -37.8 2.3 -33.5 -11.6C-29.2 -25.4 -14.6 -36.6 -0.6 -36.4C13.4 -36.2 26.7 -24.6 31.3 -10.3Z" stroke="#F7760E" fill="none" stroke-width="20"></path></g><g transform="translate(740 475)"><path d="M39.3 -13.3C45.3 5.6 40.6 27.5 26.4 38.3C12.2 49.2 -11.6 48.9 -26.2 37.8C-40.9 26.8 -46.5 4.9 -40.7 -13.9C-34.8 -32.7 -17.4 -48.5 -0.4 -48.4C16.7 -48.3 33.4 -32.3 39.3 -13.3Z" stroke="#F7760E" fill="none" stroke-width="20"></path></g><g transform="translate(625 330)"><path d="M40.7 -14.2C45.7 2 37.7 21.5 23.9 31.2C10.1 40.8 -9.6 40.6 -22.7 31.2C-35.7 21.7 -42 3 -37.1 -13.2C-32.2 -29.4 -16.1 -43 0.9 -43.3C17.9 -43.6 35.8 -30.5 40.7 -14.2Z" stroke="#F7760E" fill="none" stroke-width="20"></path></g><g transform="translate(272 554)"><path d="M47.4 -15.5C52.5 0.4 41.6 21.3 25 33C8.5 44.7 -13.8 47.1 -27.3 37.4C-40.9 27.6 -45.7 5.6 -39.7 -11.6C-33.7 -28.7 -16.9 -40.9 2.1 -41.6C21.1 -42.3 42.3 -31.4 47.4 -15.5Z" stroke="#F7760E" fill="none" stroke-width="20"></path></g><g transform="translate(750 164)"><path d="M39.5 -13.2C44 1 35.5 19 22.2 28C9 37.1 -9 37.1 -22.1 28.1C-35.3 19.1 -43.6 1.1 -39.1 -13C-34.6 -27.1 -17.3 -37.4 0.1 -37.4C17.5 -37.5 35 -27.3 39.5 -13.2Z" stroke="#F7760E" fill="none" stroke-width="20"></path></g><g transform="translate(22 557)"><path d="M35.2 -10.2C40 3.4 34.5 21.7 22.7 30C10.8 38.4 -7.4 36.8 -20 27.6C-32.6 18.5 -39.5 1.7 -35.2 -11.2C-31 -24 -15.5 -32.9 -0.1 -32.9C15.2 -32.8 30.4 -23.8 35.2 -10.2Z" stroke="#F7760E" fill="none" stroke-width="20"></path></g><g transform="translate(458 225)"><path d="M48 -17.3C53.8 2 44.1 24.7 27.7 36.1C11.3 47.5 -11.7 47.7 -28.3 36.3C-44.8 24.8 -54.9 1.9 -49.1 -17.6C-43.3 -37 -21.7 -52.8 -0.3 -52.8C21.1 -52.7 42.3 -36.6 48 -17.3Z" stroke="#F7760E" fill="none" stroke-width="20"></path></g><g transform="translate(890 401)"><path d="M30.7 -9.4C35.4 4.6 31.9 21.9 21.1 30C10.3 38.1 -7.9 37 -20 28.1C-32.1 19.2 -38.1 2.4 -33.7 -11.1C-29.4 -24.6 -14.7 -34.8 -0.9 -34.5C13 -34.2 25.9 -23.4 30.7 -9.4Z" stroke="#F7760E" fill="none" stroke-width="20"></path></g><g transform="translate(11 18)"><path d="M42.4 -14.7C47.3 1.2 38.2 20.6 23.6 30.9C8.9 41.2 -11.3 42.3 -25.5 32.6C-39.7 22.9 -47.8 2.4 -42.5 -14C-37.2 -30.4 -18.6 -42.6 0.1 -42.6C18.8 -42.7 37.6 -30.5 42.4 -14.7Z" stroke="#F7760E" fill="none" stroke-width="20"></path></g><g transform="translate(311 388)"><path d="M29.5 -9.9C33.8 3.7 29.9 19.7 18.7 28.5C7.5 37.2 -10.9 38.8 -22.8 30.4C-34.8 21.9 -40.3 3.5 -35.4 -10.9C-30.5 -25.4 -15.3 -35.8 -1.3 -35.4C12.6 -35 25.2 -23.6 29.5 -9.9Z" stroke="#F7760E" fill="none" stroke-width="20"></path></g><g transform="translate(896 216)"><path d="M25.6 -8.5C29.2 2.8 25.5 16.4 16.7 22.6C8 28.8 -5.6 27.7 -14.5 21C-23.3 14.3 -27.3 2.1 -24.1 -8.7C-20.9 -19.5 -10.5 -28.8 0.3 -28.9C11 -29 21.9 -19.9 25.6 -8.5Z" stroke="#F7760E" fill="none" stroke-width="20"></path></g><g transform="translate(714 12)"><path d="M33.1 -11C37.6 3.3 32.5 20.5 20.4 29.7C8.3 38.9 -10.8 40 -21.8 31.7C-32.8 23.3 -35.7 5.4 -30.7 -9.5C-25.7 -24.4 -12.8 -36.3 0.7 -36.6C14.3 -36.8 28.5 -25.4 33.1 -11Z" stroke="#F7760E" fill="none" stroke-width="20"></path></g></g></svg>